<?xml version="1.0" standalone="no"?>
<!DOCTYPE svg PUBLIC "-//W3C//DTD SVG 20010904//EN"
 "http://www.w3.org/TR/2001/REC-SVG-20010904/DTD/svg10.dtd">
<svg version="1.0" xmlns="http://www.w3.org/2000/svg"
 width="1280.000000pt" height="1254.000000pt" viewBox="0 0 1280.000000 1254.000000"
 preserveAspectRatio="xMidYMid meet">
<metadata>
Created by potrace 1.15, written by Peter Selinger 2001-2017
</metadata>
<g transform="translate(0.000000,1254.000000) scale(0.100000,-0.100000)"
fill="#ffffff" stroke="none">
<path d="M5800 12517 c-86 -35 -146 -81 -260 -196 -152 -154 -320 -376 -500
-661 -40 -63 -74 -117 -76 -118 -1 -2 -35 18 -76 45 -96 65 -217 133 -414 231
-550 276 -1062 420 -1549 439 -131 5 -329 -7 -342 -21 -3 -2 7 -103 21 -223
71 -606 80 -748 73 -1122 -7 -348 -5 -337 -101 -625 -199 -597 -460 -1193
-1188 -2711 -807 -1682 -1261 -2804 -1373 -3390 l-15 -76 43 -92 c59 -125 177
-333 250 -442 37 -54 111 -140 187 -215 152 -153 305 -259 525 -366 197 -95
382 -157 726 -244 282 -71 284 -72 354 -61 113 18 221 77 319 174 l83 82 12
-112 c32 -313 164 -483 404 -524 94 -15 221 -7 279 19 25 11 65 37 89 58 58
53 366 520 679 1031 214 350 347 521 605 779 331 331 671 574 1125 804 146 73
448 210 465 210 16 0 -38 -286 -88 -466 -89 -316 -262 -639 -600 -1119 -111
-157 -372 -500 -449 -589 -84 -97 -135 -162 -215 -276 -33 -47 -103 -145 -157
-218 -414 -566 -702 -1198 -825 -1817 -45 -224 -80 -505 -81 -642 l0 -63 4493
0 4493 0 17 198 c83 948 87 2052 12 2982 -168 2061 -697 3739 -1609 5100 -125
187 -424 588 -571 766 -440 531 -867 932 -1300 1218 -243 161 -408 252 -640
351 -463 197 -1051 289 -1414 220 -42 -8 -81 -15 -87 -15 -6 0 -46 107 -89
238 -136 416 -220 630 -302 760 -96 155 -243 311 -428 455 -154 119 -391 267
-428 267 -12 0 -47 -11 -77 -23z m1269 -2616 c64 -11 161 -22 216 -26 432 -27
858 -200 1320 -534 406 -294 874 -755 1318 -1299 547 -669 977 -1429 1264
-2232 24 -69 50 -141 57 -160 22 -58 122 -386 160 -525 164 -603 277 -1295
326 -2010 18 -272 32 -916 27 -1316 -4 -358 -6 -403 -26 -489 -39 -173 -110
-287 -213 -342 -36 -19 -58 -23 -138 -23 -80 0 -102 4 -138 23 -116 62 -196
209 -236 432 -27 151 -36 287 -36 554 -1 2095 -381 3761 -1148 5036 -247 410
-510 745 -887 1129 -506 514 -908 825 -1355 1050 -284 142 -545 226 -792 256
-52 6 -61 11 -99 53 -42 48 -89 133 -89 164 0 9 5 40 11 68 20 95 93 151 214
166 34 4 71 15 84 25 29 23 19 23 160 0z m-2950 -898 c204 -41 291 -145 261
-314 -15 -85 -76 -209 -151 -309 -73 -97 -309 -333 -434 -435 -237 -192 -474
-312 -693 -350 -179 -31 -272 -16 -343 55 -68 68 -91 145 -92 305 0 129 7 167
54 287 76 192 306 459 514 595 143 95 324 161 496 182 94 12 292 4 388 -16z
m-2819 -4236 c0 -2 9 -52 20 -112 24 -132 25 -188 4 -274 -44 -181 -158 -333
-305 -404 -97 -48 -172 -67 -289 -74 l-95 -5 -25 63 c-49 128 -37 268 36 425
112 238 325 372 612 382 23 1 42 1 42 -1z"/>
</g>
</svg>
