<?xml version="1.0" standalone="no"?>
<!DOCTYPE svg PUBLIC "-//W3C//DTD SVG 20010904//EN"
 "http://www.w3.org/TR/2001/REC-SVG-20010904/DTD/svg10.dtd">
<svg version="1.0" xmlns="http://www.w3.org/2000/svg"
 width="1192.000000pt" height="1280.000000pt" viewBox="0 0 1192.000000 1280.000000"
 preserveAspectRatio="xMidYMid meet">
<metadata>
Created by potrace 1.15, written by Peter Selinger 2001-2017
</metadata>
<g transform="translate(0.000000,1280.000000) scale(0.100000,-0.100000)"
fill="#000000" stroke="none">
<path d="M5815 12794 c-365 -43 -652 -154 -840 -326 -145 -132 -249 -338 -286
-563 -18 -110 -16 -348 5 -462 42 -240 161 -501 327 -722 27 -35 46 -67 43
-72 -3 -5 -17 -9 -31 -9 -49 0 -239 -72 -369 -139 -513 -267 -1374 -966 -1718
-1396 -135 -168 -259 -363 -350 -545 -116 -234 -173 -403 -223 -660 -24 -122
-26 -159 -27 -385 -1 -263 5 -329 50 -525 125 -543 450 -1145 976 -1807 l89
-112 -11 -68 c-18 -112 -63 -267 -195 -672 -69 -212 -139 -434 -156 -494 -30
-105 -31 -112 -19 -186 17 -108 64 -203 140 -284 189 -203 517 -317 1095 -382
l60 -7 -80 -30 c-546 -200 -985 -298 -1480 -328 -180 -11 -342 -6 -1161 40
-323 17 -559 -30 -790 -158 -267 -149 -559 -478 -803 -904 l-61 -107 81 -108
c97 -129 176 -248 294 -443 102 -168 191 -300 284 -420 80 -102 263 -289 346
-352 71 -54 198 -132 248 -153 l36 -15 17 52 c21 65 94 140 179 185 215 113
679 210 1265 263 69 6 258 29 420 50 289 38 581 73 710 85 724 68 1323 264
1757 576 104 75 150 114 246 206 l78 75 62 -59 c141 -133 316 -248 562 -368
464 -226 1054 -384 1815 -484 244 -32 361 -44 910 -91 581 -50 864 -108 1083
-222 104 -54 196 -143 222 -213 10 -27 20 -52 21 -54 2 -2 54 21 116 52 146
72 261 160 393 300 95 101 137 161 440 625 l335 512 -53 93 c-30 50 -75 130
-100 177 -214 397 -551 710 -892 828 -214 75 -349 86 -774 62 -676 -38 -809
-42 -992 -30 -483 30 -959 136 -1484 329 l-80 29 60 7 c365 41 626 101 822
190 237 108 382 275 413 475 l11 75 -80 305 c-43 168 -127 488 -185 712 l-106
407 111 133 c296 355 524 697 689 1033 143 292 221 525 277 825 25 135 25 561
0 705 -138 794 -646 1496 -1567 2162 -377 273 -856 550 -1064 614 -42 13 -76
27 -76 30 0 4 19 33 43 65 156 213 265 438 317 654 11 47 25 144 31 215 l12
130 -48 200 c-26 110 -60 228 -75 262 -110 244 -326 439 -596 536 -182 65
-521 103 -719 81z m320 -770 c173 -42 268 -169 282 -374 10 -153 -26 -292 -97
-372 -155 -177 -513 -171 -712 11 -172 158 -161 471 24 648 101 97 313 133
503 87z m157 -3221 l3 -398 318 -2 318 -2 2 -346 2 -345 -322 0 -323 0 0 -425
0 -425 -330 0 -330 0 0 425 0 425 -322 0 -323 0 2 345 2 346 318 2 318 2 3
398 2 397 330 0 330 0 2 -397z m1028 -2886 c298 -44 437 -112 471 -228 26 -87
-30 -185 -132 -228 -102 -44 -302 -68 -764 -93 -316 -16 -1562 -16 -1865 0
-472 26 -666 51 -770 98 -68 31 -97 57 -121 109 -33 70 -21 136 36 203 68 81
246 131 542 151 65 5 651 8 1303 7 1058 -2 1197 -4 1300 -19z m0 -1140 c285
-43 425 -106 466 -212 37 -99 -18 -169 -181 -228 -296 -106 -883 -147 -2130
-147 -534 0 -664 7 -895 46 -333 57 -495 169 -451 315 40 132 236 209 612 238
57 5 635 8 1284 7 1052 -2 1193 -4 1295 -19z"/>
</g>
</svg>
