<?xml version="1.0" standalone="no"?>
<!DOCTYPE svg PUBLIC "-//W3C//DTD SVG 20010904//EN"
 "http://www.w3.org/TR/2001/REC-SVG-20010904/DTD/svg10.dtd">
<svg version="1.0" xmlns="http://www.w3.org/2000/svg"
 width="1104.000000pt" height="1280.000000pt" viewBox="0 0 1104.000000 1280.000000"
 preserveAspectRatio="xMidYMid meet">
<metadata>
Created by potrace 1.15, written by Peter Selinger 2001-2017
</metadata>
<g transform="translate(0.000000,1280.000000) scale(0.100000,-0.100000)"
fill="#ffffff" stroke="none">
<path d="M929 12790 c-247 -14 -301 -66 -332 -315 -15 -128 -15 -1996 0 -2155
l10 -104 44 -39 c148 -129 534 -431 1292 -1007 l217 -165 -1 -2300 0 -2300
-201 -210 c-525 -549 -923 -977 -1046 -1124 -100 -119 -95 -88 -102 -736 l-5
-560 -290 -5 c-332 -6 -330 -5 -441 -100 l-62 -52 -7 -527 c-8 -519 -4 -715
16 -840 21 -137 87 -209 202 -222 34 -4 330 -13 657 -19 440 -9 1820 -11 5305
-7 l4710 6 56 59 c37 39 60 74 69 103 10 33 14 185 17 602 7 808 -5 894 -128
955 -50 25 -211 41 -419 42 -58 0 -135 3 -172 7 l-68 6 0 338 c0 406 -16 780
-35 824 -27 61 -292 358 -922 1032 l-403 432 0 2298 0 2298 272 205 c898 677
1242 950 1273 1011 31 60 38 304 31 1214 -6 810 -14 1108 -32 1193 -9 42 -76
118 -117 131 -69 23 -289 31 -987 37 -809 7 -1026 0 -1107 -36 -59 -26 -89
-53 -116 -105 -42 -82 -49 -144 -54 -493 l-5 -332 -547 2 -546 3 -11 375 c-7
206 -16 390 -22 407 -27 84 -87 125 -219 149 -111 20 -641 33 -1393 33 -632 1
-941 -8 -1013 -29 -76 -22 -140 -105 -166 -215 -19 -83 -31 -277 -31 -507 l0
-218 -543 0 -544 0 -6 113 c-4 61 -7 182 -7 267 -1 204 -15 386 -33 430 -30
70 -92 108 -212 130 -33 6 -188 15 -345 20 -323 10 -1306 10 -1481 0z"/>
</g>
</svg>
