<?xml version="1.0" standalone="no"?>
<!DOCTYPE svg PUBLIC "-//W3C//DTD SVG 20010904//EN"
 "http://www.w3.org/TR/2001/REC-SVG-20010904/DTD/svg10.dtd">
<svg version="1.0" xmlns="http://www.w3.org/2000/svg"
 width="975.000000pt" height="1280.000000pt" viewBox="0 0 975.000000 1280.000000"
 preserveAspectRatio="xMidYMid meet">
<metadata>
Created by potrace 1.15, written by Peter Selinger 2001-2017
</metadata>
<g transform="translate(0.000000,1280.000000) scale(0.100000,-0.100000)"
fill="#ffffff" stroke="none">
<path d="M4800 12794 c-495 -61 -863 -193 -1166 -417 -111 -82 -281 -260 -360
-377 -192 -283 -277 -549 -299 -930 -17 -298 50 -661 177 -958 22 -52 37 -97
32 -101 -5 -4 -45 -32 -89 -61 -614 -408 -1036 -1019 -1184 -1711 -68 -320
-69 -730 -1 -1065 81 -406 285 -852 547 -1198 25 -32 41 -62 36 -65 -4 -4 -75
-55 -158 -114 -842 -600 -1556 -1474 -1953 -2392 -426 -984 -495 -1978 -202
-2898 37 -118 163 -453 173 -464 16 -15 385 -24 1407 -33 2218 -19 7110 -7
7500 18 l105 7 19 40 c192 403 297 769 348 1210 16 140 16 583 -1 735 -7 63
-21 171 -32 239 -213 1352 -1142 2749 -2391 3595 l-88 60 17 25 c92 140 245
433 326 622 206 483 308 1019 278 1463 -24 351 -94 621 -235 911 -195 397
-484 717 -895 987 -73 48 -142 90 -152 93 -26 8 -24 21 12 100 224 494 267
960 128 1380 -39 119 -147 339 -219 450 -299 456 -763 747 -1325 830 -109 16
-298 26 -355 19z"/>
</g>
</svg>
